<svg id="Capa_1" enable-background="new 0 0 512.003 512.003" height="512" viewBox="0 0 512.003 512.003" width="512" xmlns="http://www.w3.org/2000/svg"><g><g><path d="m262.082 409.921h-12.16l-65.92 20.99c12.97 26.69 40.33 45.09 72 45.09s59.03-18.4 72-45.09z" fill="#ffda8f"/><path d="m455.982 114.342c-.88-43.42-36.36-78.34-79.98-78.34-44.18 0-80 35.82-80 80 0 1.71.05 3.4.16 5.08-12.83-3.32-26.29-5.08-40.16-5.08s-27.33 1.77-40.16 5.08c.11-1.68.16-3.37.16-5.08 0-44.18-35.82-80-80-80-43.62 0-79.1 34.92-79.98 78.34l62.51 79.75c-14.31 23.96-22.53 51.97-22.53 81.91 0 51.378 24.308 97.755 63.08 127.32h.01c7.07 19.193 25.522 32.68 46.91 32.68 18.95 0 35.44-10.54 43.92-26.08h12.16c8.48 15.54 24.97 26.08 43.92 26.08 21.38 0 39.837-13.481 46.91-32.68h.01c38.412-29.29 63.08-75.499 63.08-127.32 0-29.94-8.22-57.95-22.53-81.91z" fill="#c1b0b5"/><path d="m456.002 116.002c0 38.18-26.75 70.12-62.53 78.09-12.95-21.69-30.89-40.06-52.22-53.51-3.37-7.5-5.25-15.82-5.25-24.58 0-33.14 26.86-60 60-60 32.91 0 60 26.625 60 60z" fill="#fce8d0"/><circle cx="336.002" cy="256.002" fill="#fff5f5" r="20"/><path d="m267.722 356.002c17.81 0 26.74 21.54 14.14 34.14-9.648 9.648-16.163 16.163-25.86 25.86-9.685-9.685-16.205-16.205-25.86-25.86-12.6-12.6-3.67-34.14 14.14-34.14z" fill="#fce8d0"/><circle cx="176.002" cy="256.002" fill="#fff5f5" r="20"/><path d="m176.002 116.002c0 8.76-1.88 17.08-5.25 24.58-21.33 13.45-39.27 31.82-52.22 53.51-35.78-7.97-62.53-39.91-62.53-78.09 0-33.05 26.766-60 60-60 33.14 0 60 26.86 60 60z" fill="#fce8d0"/></g><g><path d="m8.446 366.123c-5.456.859-9.182 5.979-8.323 11.434.861 5.466 5.989 9.181 11.434 8.323l102.603-16.16c10.025 15.166 22.322 28.532 36.649 39.828 5.177 12.173 14.168 22.199 25.718 28.712 15.581 29.255 46.002 47.742 79.475 47.742 33.409 0 63.864-18.431 79.475-47.742 11.554-6.514 20.548-16.545 25.72-28.713 14.327-11.295 26.623-24.661 36.647-39.826l102.603 16.16c5.455.859 10.575-2.867 11.434-8.323s-2.867-10.575-8.323-11.434l-95.036-14.968c5.12-10.363 9.153-21.192 12.047-32.374l82.97-12.898c5.457-.849 9.193-5.96 8.345-11.417s-5.951-9.195-11.417-8.345l-75.875 11.795c.933-7.242 1.412-14.57 1.412-21.914 0-26.463-6.162-52.463-17.884-75.931 35.792-13.726 57.884-47.71 57.884-84.069 0-49.41-40.005-90-90-90-5.133 0-10.283.437-15.307 1.298-5.443.933-9.1 6.103-8.166 11.546.933 5.443 6.104 9.102 11.546 8.166 3.91-.67 7.923-1.01 11.927-1.01 3.38 0 6.706.256 9.966.73-33.86 4.883-59.966 34.079-59.966 69.27 0 9.98 2.062 19.629 6.128 28.679.806 1.794 2.124 3.311 3.788 4.36 42.436 26.757 70.083 73.915 70.083 126.961 0 40.13-15.785 76.143-40.484 102.513-3.699-29.561-28.969-52.513-59.516-52.513-5.523 0-10 4.477-10 10s4.477 10 10 10c22.056 0 40 17.944 40 40 0 21.991-17.838 40-40 40-12.182 0-23.531-5.542-31.052-14.805l13.983-13.983c18.89-18.891 5.542-51.211-21.211-51.211h-23.44c-26.715 0-40.129 32.292-21.211 51.211l13.983 13.983c-7.522 9.263-18.87 14.805-31.052 14.805-22.246 0-40-18.1-40-40 0-22.056 17.944-40 40-40 5.523 0 10-4.477 10-10s-4.477-10-10-10c-30.547 0-55.818 22.952-59.516 52.513-18.16-19.39-31.299-43.783-37.1-70.7-2.245-10.364-3.383-21.067-3.383-31.813 0-53.043 27.644-100.201 70.083-126.961 1.664-1.049 2.981-2.566 3.788-4.36 4.066-9.05 6.128-18.699 6.128-28.679 0-35.191-26.106-64.387-59.966-69.27 3.26-.474 6.586-.73 9.966-.73 38.598 0 70 31.402 70 70 0 1.557-.045 3.004-.139 4.425-.447 6.796 5.897 12.038 12.477 10.338 12.25-3.161 24.922-4.763 37.662-4.763 12.778 0 25.447 1.602 37.655 4.761 6.588 1.703 12.931-3.54 12.484-10.336-.093-1.421-.139-2.868-.139-4.425 0-6.099.783-12.147 2.328-17.977 1.415-5.339-1.767-10.813-7.105-12.228-5.342-1.416-10.813 1.767-12.228 7.105-1.367 5.158-2.27 10.445-2.701 15.79-19.878-3.574-40.632-3.582-60.587.004-3.731-46.222-42.54-82.696-89.707-82.696-49.707 0-90 40.248-90 90 0 36.399 22.131 70.358 57.884 84.069-11.722 23.469-17.884 49.468-17.884 75.931 0 7.344.479 14.673 1.411 21.914l-75.876-11.795c-5.459-.85-10.569 2.888-11.417 8.345-.848 5.458 2.888 10.569 8.345 11.417l82.97 12.898c2.895 11.185 6.928 22.013 12.046 32.374zm340.836-232.264c-2.178-5.687-3.28-11.681-3.28-17.858 0-27.57 22.43-50 50-50 27.147 0 50 21.447 50 50 0 30.203-19.836 57.123-48.042 66.474-12.728-19.263-29.391-35.932-48.678-48.616zm-105.001 232.143h23.44c8.903 0 13.367 10.771 7.068 17.069l-18.789 18.789-18.789-18.789c-6.294-6.296-1.837-17.069 7.07-17.069zm7.338 58.98c1.38.673 2.88 1.02 4.382 1.02 1.503 0 3.002-.346 4.382-1.02 11.079 12.962 27.296 20.741 44.706 21.004-12.84 12.675-30.26 20.016-49.088 20.016s-36.248-7.341-49.088-20.016c17.41-.263 33.627-8.042 44.706-21.004zm-185.617-308.98c0-27.821 22.171-50 50-50 27.57 0 50 22.43 50 50 0 6.177-1.103 12.171-3.28 17.858-19.287 12.683-35.95 29.352-48.678 48.616-28.206-9.352-48.042-36.271-48.042-66.474z"/><path d="m176.002 226.002c-16.542 0-30 13.458-30 30s13.458 30 30 30 30-13.458 30-30-13.458-30-30-30zm0 40c-5.514 0-10-4.486-10-10s4.486-10 10-10 10 4.486 10 10-4.486 10-10 10z"/><path d="m306.002 256.002c0 16.542 13.458 30 30 30s30-13.458 30-30-13.458-30-30-30-30 13.458-30 30zm30-10c5.514 0 10 4.486 10 10s-4.486 10-10 10-10-4.486-10-10c0-5.515 4.485-10 10-10z"/><circle cx="322.002" cy="57.002" r="10"/></g></g></svg>